<svg width="52" viewBox="0 0 52 449" fill="none" xmlns="http://www.w3.org/2000/svg">
<path d="M51.308 449H0.692027L0.692026 420.969H9.51522L9.51522 443.452H21.5761L21.5761 423.161H30.3992V443.452H51.308V449Z" fill="#FFDA96"/>
<path d="M51.308 413.874H0.692025L0.692025 403.327H42.4848V381.939H51.308V413.874Z" fill="#FFDA96"/>
<path d="M26 331.053C31.5196 331.053 36.2155 332.084 40.0875 334.146C43.9594 336.192 46.917 338.986 48.9601 342.526C50.9867 346.05 52 350.012 52 354.413C52 358.847 50.9785 362.825 48.9354 366.349C46.8923 369.873 43.9347 372.658 40.0627 374.704C36.1908 376.751 31.5032 377.774 26 377.774C20.4804 377.774 15.7845 376.751 11.9126 374.704C8.04057 372.658 5.09126 369.873 3.06465 366.349C1.02155 362.825 7.54711e-06 358.847 7.35049e-06 354.413C7.15531e-06 350.012 1.02155 346.05 3.06465 342.526C5.09126 338.986 8.04056 336.192 11.9126 334.146C15.7845 332.084 20.4804 331.053 26 331.053ZM26 341.746C22.4246 341.746 19.4094 342.274 16.9544 343.33C14.4994 344.369 12.6375 345.839 11.3688 347.739C10.1001 349.639 9.46579 351.864 9.46579 354.413C9.46579 356.963 10.1001 359.188 11.3688 361.088C12.6375 362.988 14.4994 364.465 16.9544 365.521C19.4094 366.56 22.4246 367.08 26 367.08C29.5754 367.08 32.5906 366.56 35.0456 365.521C37.5006 364.465 39.3625 362.988 40.6312 361.088C41.8999 359.188 42.5342 356.963 42.5342 354.413C42.5342 351.864 41.8999 349.639 40.6312 347.739C39.3625 345.839 37.5006 344.369 35.0456 343.33C32.5906 342.274 29.5754 341.746 26 341.746Z" fill="#FFDA96"/>
<path d="M51.308 323.239H0.692021L0.692021 303.557C0.69202 299.789 1.3758 296.574 2.74335 293.911C4.09443 291.231 6.01395 289.193 8.50191 287.797C10.9734 286.384 13.8815 285.677 17.2262 285.677C20.5875 285.677 23.4791 286.392 25.9011 287.821C28.3067 289.25 30.1521 291.321 31.4373 294.033C32.7224 296.728 33.365 299.992 33.365 303.825V317.003H24.7643V305.53C24.7643 303.516 24.4842 301.844 23.924 300.512C23.3638 299.18 22.5234 298.19 21.403 297.54C20.2826 296.874 18.8904 296.542 17.2262 296.542C15.5456 296.542 14.1286 296.874 12.9753 297.54C11.8219 298.19 10.9487 299.189 10.3555 300.536C9.74589 301.868 9.44107 303.549 9.44107 305.579V312.692H51.308V323.239ZM28.2738 296.298L51.308 283.899V295.543L28.2738 307.674V296.298Z" fill="#FFDA96"/>
<path d="M51.308 269.625V280.927L0.692019 263.705L0.692018 250.113L51.308 232.915V244.218L12.2586 256.714V257.104L51.308 269.625ZM31.4125 270.331L31.4125 243.633H39.7662V270.331H31.4125Z" fill="#FFDA96"/>
<path d="M18.4125 167.017V177.686C17.012 177.881 15.7681 178.279 14.6806 178.88C13.5767 179.481 12.6375 180.252 11.8631 181.194C11.0887 182.136 10.4956 183.224 10.0836 184.458C9.67174 185.676 9.46578 187 9.46578 188.429C9.46578 191.011 10.1166 193.26 11.4182 195.176C12.7034 197.093 14.5817 198.579 17.0532 199.634C19.5082 200.69 22.4905 201.218 26 201.218C29.6084 201.218 32.64 200.69 35.0951 199.634C37.5501 198.562 39.4037 197.068 40.6559 195.152C41.9081 193.236 42.5342 191.019 42.5342 188.502C42.5342 187.089 42.3447 185.782 41.9658 184.58C41.5868 183.362 41.0348 182.282 40.3099 181.34C39.5684 180.398 38.6705 179.619 37.616 179.002C36.5615 178.369 35.3587 177.93 34.0076 177.686L34.057 167.017C36.3802 167.293 38.621 167.983 40.7795 169.088C42.9214 170.176 44.8409 171.645 46.538 173.497C48.2186 175.332 49.5532 177.524 50.5418 180.074C51.5139 182.607 52 185.473 52 188.673C52 193.122 50.9785 197.101 48.9354 200.609C46.8923 204.1 43.9347 206.861 40.0627 208.891C36.1907 210.904 31.5032 211.911 26 211.911C20.4804 211.911 15.7845 210.888 11.9125 208.842C8.04056 206.796 5.09126 204.019 3.06464 200.511C1.02155 197.003 1.94458e-07 193.057 0 188.673C-1.28198e-07 185.782 0.411914 183.102 1.23574 180.634C2.05957 178.149 3.26236 175.949 4.8441 174.033C6.40938 172.116 8.3289 170.557 10.6027 169.356C12.8764 168.138 15.4797 167.358 18.4125 167.017Z" fill="#FFDA96"/>
<path d="M51.308 159.454L0.692014 159.454L0.692014 148.906H21.576L21.576 127.494H0.692013L0.692012 116.971H51.308V127.494H30.3992L30.3992 148.906H51.308V159.454Z" fill="#FFDA96"/>
<path d="M51.308 99.6758V110.979L0.692011 93.7565L0.692011 80.1641L51.308 62.9664V74.2691L12.2585 86.7654V87.1552L51.308 99.6758ZM31.4125 100.382L31.4125 73.6845H39.7662V100.382H31.4125Z" fill="#FFDA96"/>
<path d="M0.692009 46.4143L51.308 46.4143V56.9618H0.69201L0.692009 46.4143Z" fill="#FFDA96"/>
<path d="M0.692007 2.14105e-06L51.308 0V5.11917L19.4506 26.8233V27.1887L51.308 27.1887V37.7363H0.692009L0.692008 28.4797L32.5247 6.94612V6.50765L0.692007 6.50765L0.692007 2.14105e-06Z" fill="#FFDA96"/>
</svg>
